<svg xmlns="http://www.w3.org/2000/svg" width="67" height="67" viewBox="0 0 67 67" fill="none"><g clip-path="url(#clip0_1278_81)"><path d="M7.15137 22.7806C7.07513 22.7806 6.99889 22.7502 6.96839 22.6739C6.9379 22.5977 6.92265 22.5367 6.95315 22.4604L7.04464 22.2622C11.5581 11.6191 21.942 4.74219 33.5 4.74219C45.0581 4.74219 55.4572 11.6191 59.9707 22.247L60.0622 22.4452C60.0927 22.5214 60.0774 22.5977 60.0469 22.6587C60.0164 22.7197 59.9249 22.7654 59.8639 22.7654H7.15137V22.7806ZM59.0558 22.0335C54.5424 11.985 44.5549 5.50459 33.5 5.50459C22.4452 5.50459 12.4577 11.9698 7.94427 22.0335H59.0558Z" fill="#BDA360"></path><path d="M61.8005 22.7806C61.6481 22.7806 61.5108 22.6891 61.4498 22.5366C56.9059 10.9633 45.9426 3.49178 33.5001 3.49178C21.0577 3.49178 10.0944 10.9633 5.55043 22.5519C5.48944 22.6891 5.35221 22.7958 5.19973 22.7958C5.15398 22.7958 5.10824 22.7958 5.06249 22.7653C4.86427 22.6891 4.77278 22.4756 4.84902 22.2774C7.07524 16.5899 10.933 11.7257 15.9649 8.21868C21.1187 4.63539 27.1874 2.74463 33.4849 2.74463C39.7823 2.74463 45.8511 4.63539 51.0049 8.21868C56.052 11.7257 59.8945 16.5746 62.1208 22.2774C62.197 22.4756 62.1055 22.6891 61.9073 22.7653C61.8615 22.7806 61.8158 22.7958 61.7701 22.7958L61.8005 22.7806Z" fill="#BDA360"></path><path d="M33.5004 62.2579C21.9423 62.2579 11.5432 55.3811 7.02973 44.7379L6.93825 44.5397C6.90775 44.4635 6.90775 44.3872 6.95349 44.3262C6.99924 44.2652 7.07548 44.2195 7.13647 44.2195H59.8338C59.91 44.2195 59.9863 44.25 60.0168 44.3262C60.0473 44.4025 60.0625 44.4787 60.032 44.5397L59.9405 44.7379C55.4118 55.3811 45.0279 62.2579 33.4699 62.2579H33.5004ZM7.94462 44.9666C12.458 55.0304 22.4608 61.4955 33.5004 61.4955C44.54 61.4955 54.5427 55.0151 59.0561 44.9666H7.94462Z" fill="#BDA360"></path><path d="M33.4996 64.2554C27.2021 64.2554 21.1334 62.3647 15.9795 58.7814C10.9324 55.2743 7.08991 50.4254 4.86369 44.7379C4.8332 44.6464 4.8332 44.5397 4.86369 44.4482C4.89419 44.3567 4.97043 44.2805 5.07717 44.25C5.12291 44.2347 5.16865 44.2195 5.2144 44.2195C5.36688 44.2195 5.50411 44.311 5.5651 44.4635C10.109 56.0367 21.0724 63.5083 33.5148 63.5083C45.9572 63.5083 56.9206 56.0367 61.4645 44.4635C61.5255 44.311 61.6627 44.2195 61.8152 44.2195C61.9677 44.2195 61.9067 44.2195 61.9524 44.25C62.0439 44.2805 62.1202 44.3567 62.1659 44.4482C62.2117 44.5397 62.2117 44.6464 62.1659 44.7379C59.9397 50.4254 56.0819 55.2896 51.0501 58.7814C45.8962 62.3647 39.8275 64.2554 33.5301 64.2554H33.4996Z" fill="#BDA360"></path><path d="M33.4997 66.6188C15.2325 66.6188 0.380859 51.7672 0.380859 33.5C0.380859 15.2328 15.2325 0.381226 33.4997 0.381226C51.7668 0.381226 66.6185 15.2328 66.6185 33.5C66.6185 51.7672 51.7668 66.6188 33.4997 66.6188ZM33.4997 1.14363C15.6594 1.14363 1.14326 15.6598 1.14326 33.5C1.14326 51.3403 15.6594 65.8564 33.4997 65.8564C51.3399 65.8564 65.856 51.3403 65.856 33.5C65.856 15.6598 51.3399 1.14363 33.4997 1.14363Z" fill="#BDA360"></path><path d="M33.5 67C15.0346 67 0 51.9807 0 33.5C0 15.0193 15.0346 0 33.5 0C51.9654 0 67 15.0346 67 33.5C67 51.9654 51.9654 67 33.5 67ZM33.195 65.4752H33.5C51.1268 65.4752 65.4752 51.1268 65.4752 33.5C65.4752 15.8732 51.1268 1.52481 33.5 1.52481C15.8732 1.52481 1.52481 15.8732 1.52481 33.5C1.52481 51.1268 15.7055 65.3075 33.195 65.4752Z" fill="#BDA360"></path><path d="M15.5986 41.6119V39.1112H16.544C16.7575 39.1112 16.9405 39.1417 17.0929 39.2179C17.2454 39.2942 17.3674 39.3857 17.4436 39.5076C17.5199 39.6296 17.5656 39.7974 17.5656 39.9651C17.5656 40.1328 17.5199 40.3005 17.4436 40.4225C17.3674 40.5445 17.2454 40.6513 17.0929 40.7122C16.9405 40.7885 16.7575 40.819 16.544 40.819H15.7511L15.8731 40.697V41.6119H15.6139H15.5986ZM15.8731 40.7122L15.7511 40.5903H16.5288C16.7727 40.5903 16.971 40.5293 17.0929 40.4225C17.2149 40.3158 17.2912 40.1633 17.2912 39.9651C17.2912 39.7669 17.2302 39.6144 17.0929 39.5076C16.9557 39.4009 16.7727 39.3399 16.5288 39.3399H15.7511L15.8731 39.2179V40.7275V40.7122ZM18.4958 41.6119V39.1112H19.4411C19.6546 39.1112 19.8376 39.1417 19.9901 39.2179C20.1426 39.2942 20.2645 39.3857 20.3408 39.5076C20.417 39.6296 20.4628 39.7974 20.4628 39.9651C20.4628 40.1328 20.417 40.3005 20.3408 40.4225C20.2645 40.5445 20.1426 40.6513 19.9901 40.7122C19.8376 40.7885 19.6546 40.819 19.4411 40.819H18.6482L18.7702 40.697V41.6119H18.511H18.4958ZM18.755 40.7122L18.633 40.5903H19.4106C19.6546 40.5903 19.8528 40.5293 19.9748 40.4225C20.0968 40.3158 20.1731 40.1633 20.1731 39.9651C20.1731 39.7669 20.1121 39.6144 19.9748 39.5076C19.8376 39.4009 19.6546 39.3399 19.4106 39.3399H18.633L18.755 39.2179V40.7275V40.7122ZM20.2035 41.6119L19.5631 40.697H19.8528L20.4933 41.6119H20.2035ZM21.4386 41.6119V39.1112H21.6979V41.6119H21.4386ZM23.5581 41.6119L22.445 39.1112H22.7347L23.7716 41.4746H23.6191L24.6712 39.1112H24.9457L23.8326 41.6119H23.5734H23.5581ZM25.6471 41.6119V39.1112H25.9063V41.6119H25.6471ZM27.0804 41.6119V39.1112H27.3396V41.3832H28.7425V41.6119H27.0804ZM29.8251 41.3832H31.3346V41.6119H29.5659V39.1112H31.2889V39.3399H29.8403V41.3832H29.8251ZM29.7946 40.2243H31.1212V40.453H29.7946V40.2243ZM33.3931 41.6271C33.2101 41.6271 33.0272 41.5966 32.8594 41.5356C32.6917 41.4746 32.5545 41.3832 32.4325 41.2612C32.3105 41.1392 32.219 41.0172 32.158 40.8647C32.097 40.7122 32.0665 40.5445 32.0665 40.3615C32.0665 40.1786 32.097 40.0108 32.158 39.8584C32.219 39.7059 32.3105 39.5686 32.4325 39.4619C32.5545 39.3399 32.6917 39.2637 32.8594 39.1874C33.0272 39.1264 33.1949 39.0959 33.3931 39.0959C33.5914 39.0959 33.7591 39.1264 33.9116 39.1874C34.064 39.2484 34.2013 39.3399 34.3233 39.4619L34.1555 39.6296C34.0488 39.5229 33.9421 39.4467 33.8048 39.4009C33.6828 39.3552 33.5456 39.3247 33.3931 39.3247C33.2406 39.3247 33.1034 39.3552 32.9662 39.4009C32.8289 39.4467 32.7222 39.5229 32.6307 39.6144C32.5392 39.7059 32.463 39.8126 32.402 39.9498C32.341 40.0718 32.3258 40.2091 32.3258 40.3615C32.3258 40.514 32.3563 40.6513 32.402 40.7732C32.463 40.8952 32.524 41.002 32.6307 41.1087C32.7222 41.2002 32.8442 41.2764 32.9662 41.3222C33.1034 41.3679 33.2406 41.3984 33.3931 41.3984C33.5456 41.3984 33.6676 41.3832 33.8048 41.3374C33.9268 41.2917 34.0488 41.2154 34.1555 41.1239L34.308 41.3222C34.186 41.4289 34.0488 41.5051 33.8811 41.5661C33.7133 41.6271 33.5609 41.6424 33.3779 41.6424L33.3931 41.6271ZM34.064 41.2764V40.3463H34.3233V41.3069L34.064 41.2764ZM35.6956 41.3832H37.2051V41.6119H35.4364V39.1112H37.1594V39.3399H35.7108V41.3832H35.6956ZM35.6651 40.2243H36.9917V40.453H35.6651V40.2243ZM41.8558 41.6271C41.6728 41.6271 41.4899 41.5966 41.3374 41.5356C41.1849 41.4746 41.0324 41.3832 40.9257 41.2612C40.8037 41.1392 40.7122 41.0172 40.6512 40.8647C40.5902 40.7122 40.5597 40.5445 40.5597 40.3615C40.5597 40.1786 40.5902 40.0108 40.6512 39.8584C40.7122 39.7059 40.8037 39.5686 40.9257 39.4619C41.0477 39.3399 41.1849 39.2637 41.3374 39.1874C41.4899 39.1264 41.6728 39.0959 41.8558 39.0959C42.0388 39.0959 42.2065 39.1264 42.3742 39.1874C42.542 39.2484 42.664 39.3399 42.7707 39.4619L42.603 39.6296C42.4962 39.5229 42.3895 39.4467 42.2675 39.4009C42.1455 39.3552 42.0083 39.3247 41.8711 39.3247C41.7338 39.3247 41.5813 39.3552 41.4441 39.4009C41.3221 39.4467 41.2001 39.5229 41.1087 39.6144C41.0172 39.7059 40.9409 39.8126 40.8799 39.9498C40.8189 40.0718 40.8037 40.2091 40.8037 40.3615C40.8037 40.514 40.8342 40.6513 40.8799 40.7732C40.9409 40.8952 41.0019 41.002 41.1087 41.1087C41.2154 41.2154 41.3221 41.2764 41.4441 41.3222C41.5813 41.3679 41.7186 41.3984 41.8711 41.3984C42.0235 41.3984 42.1455 41.3679 42.2675 41.3222C42.3895 41.2764 42.5115 41.2002 42.603 41.0934L42.7707 41.2612C42.664 41.3832 42.5267 41.4746 42.3742 41.5356C42.2218 41.5966 42.0388 41.6271 41.8558 41.6271ZM43.7008 41.6119V39.1112H43.96V41.3832H45.3629V41.6119H43.7008ZM47.1164 41.6271C46.7962 41.6271 46.537 41.5356 46.354 41.3527C46.171 41.1697 46.0795 40.8952 46.0795 40.5293V39.0959H46.3387V40.514C46.3387 40.8037 46.3997 41.0325 46.537 41.1697C46.6742 41.3069 46.8572 41.3832 47.1011 41.3832C47.3451 41.3832 47.5433 41.3069 47.6653 41.1697C47.8026 41.0325 47.8635 40.8037 47.8635 40.514V39.0959H48.1228V40.5293C48.1228 40.8952 48.0313 41.1544 47.8483 41.3527C47.6653 41.5356 47.4213 41.6271 47.1011 41.6271H47.1164ZM49.3121 41.6119V39.1112H50.3947C50.6692 39.1112 50.8827 39.1722 51.0504 39.2789C51.2029 39.3857 51.2791 39.5534 51.2791 39.7516C51.2791 39.9498 51.2486 39.9956 51.1876 40.0871C51.1266 40.1786 51.0351 40.2548 50.9284 40.3005C50.8217 40.3463 50.6997 40.3768 50.5777 40.3768L50.6387 40.2853C50.7912 40.2853 50.9437 40.3158 51.0504 40.3615C51.1724 40.4073 51.2639 40.4835 51.3249 40.575C51.3858 40.6665 51.4163 40.7885 51.4163 40.941C51.4163 41.1544 51.3401 41.3222 51.1876 41.4289C51.0351 41.5509 50.7912 41.5966 50.4862 41.5966H49.3274L49.3121 41.6119ZM49.5713 41.3832H50.4557C50.6692 41.3832 50.8369 41.3527 50.9589 41.2764C51.0809 41.2002 51.1266 41.0782 51.1266 40.9105C51.1266 40.7427 51.0656 40.636 50.9589 40.5598C50.8522 40.4835 50.6692 40.453 50.4557 40.453H49.5408V40.2396H50.3642C50.5625 40.2396 50.7149 40.2091 50.8369 40.1176C50.9437 40.0413 51.0046 39.9346 51.0046 39.7821C51.0046 39.6296 50.9437 39.5076 50.8369 39.4467C50.7302 39.3857 50.5625 39.3399 50.3642 39.3399H49.5713V41.4137V41.3832Z" fill="#BDA360"></path><path d="M16.956 31.4568V31.7465C16.5138 31.7465 16.1936 31.8532 15.9954 32.0515C15.7972 32.2497 15.7057 32.6004 15.7057 33.1036V35.8025C15.4769 35.8635 15.0348 35.9245 14.3943 35.9702C13.7539 36.016 13.2507 36.0464 12.9 36.0464C11.0398 36.0464 9.59119 35.589 8.55433 34.6741C7.51746 33.7592 6.99902 32.5546 6.99902 31.0603C6.99902 29.566 7.22774 29.0781 7.68519 28.2242C8.14263 27.3855 8.7678 26.7146 9.59119 26.2267C10.3993 25.7388 11.2685 25.4948 12.1834 25.4948C13.0982 25.4948 13.327 25.5863 13.9826 25.7845C14.3943 25.9065 14.7145 25.9675 14.928 25.9675C15.1415 25.9675 15.4007 25.8607 15.4922 25.632H15.8124V28.5901H15.5227C15.4007 27.7668 15.0348 27.1111 14.4096 26.6079C13.7844 26.12 13.0373 25.8607 12.1986 25.8607C11.36 25.8607 10.2621 26.2877 9.59119 27.1416C8.90503 27.9955 8.56957 29.0933 8.56957 30.4352C8.56957 31.777 8.96602 33.1341 9.74368 34.1099C10.5213 35.0858 11.5125 35.5738 12.7018 35.5738C13.8911 35.5738 14.3943 35.2078 14.3943 34.5064V33.4238C14.3943 32.7986 14.3181 32.3717 14.1504 32.1277C13.9826 31.8837 13.7082 31.7617 13.2812 31.7617H12.9V31.472H16.9713L16.956 31.4568ZM22.4148 25.754V26.0437C21.9879 26.0437 21.6829 26.1657 21.5152 26.3944C21.3475 26.6231 21.2712 27.0501 21.2712 27.6448V33.9117C21.2712 34.5064 21.3475 34.9333 21.5152 35.1621C21.6829 35.3908 21.9726 35.5128 22.4148 35.5128V35.8025H18.801V35.5128C19.2432 35.5128 19.5482 35.3908 19.7007 35.1773C19.8684 34.9486 19.9446 34.5369 19.9446 33.927V27.66C19.9446 27.0348 19.8684 26.6231 19.7007 26.3944C19.5329 26.1657 19.2432 26.059 18.801 26.059V25.7693H22.4148V25.754ZM32.448 26.0437V25.754H35.4824V26.0437C34.9945 26.0437 34.659 26.1657 34.476 26.3792C34.2931 26.6079 34.1863 27.0196 34.1863 27.6143V35.7872H33.8814L26.7605 27.0501V34.1099C26.7605 34.6131 26.8673 34.9638 27.0655 35.1773C27.2637 35.3908 27.6144 35.4975 28.0871 35.4975V35.7872H25.0375V35.4975C25.5254 35.4975 25.8456 35.3755 26.0286 35.1163C26.1963 34.8571 26.2878 34.4149 26.2878 33.7745V27.8887C26.2878 27.2483 26.1658 26.8061 25.9371 26.5164C25.7084 26.2267 25.3272 26.0742 24.7935 26.0285V25.7388H27.3704L33.6831 33.561V27.6753C33.6831 27.0501 33.5916 26.6231 33.4239 26.3792C33.2562 26.1352 32.936 26.0132 32.4633 26.0132L32.448 26.0437ZM44.799 26.2419H43.2742V33.9727C43.2742 34.5826 43.3504 34.9943 43.5029 35.2078C43.6554 35.4213 43.9451 35.528 44.372 35.528V35.8177H40.8192V35.528C41.2614 35.528 41.5664 35.406 41.7189 35.1621C41.8714 34.9181 41.9628 34.5064 41.9628 33.927V26.2419H40.499C39.7976 26.2419 39.2944 26.3487 38.9742 26.5774C38.654 26.8061 38.4863 27.1721 38.4405 27.6753H38.1356V25.3728H38.4405C38.715 25.6168 39.2182 25.754 39.9501 25.754H45.2259C45.9883 25.754 46.522 25.632 46.827 25.3728H47.1472V27.6753H46.949C46.827 27.1263 46.5983 26.7451 46.278 26.5469C45.9578 26.3487 45.4699 26.2419 44.8295 26.2419H44.799ZM49.2667 30.7401C49.2667 29.2458 49.7851 28.0107 50.8067 27.0043C51.8283 25.998 53.1244 25.51 54.6492 25.51C56.174 25.51 57.3939 26.0132 58.4308 27.0196C59.4676 28.026 59.9708 29.2763 59.9708 30.7249C59.9708 32.1734 59.4524 33.4695 58.4155 34.5064C57.3786 35.5433 56.0978 36.0464 54.6035 36.0464C53.1092 36.0464 51.8436 35.528 50.8067 34.5064C49.7699 33.4848 49.2514 32.2192 49.2514 30.7249L49.2667 30.7401ZM50.8067 30.7554C50.8067 32.2192 51.1574 33.4085 51.8588 34.3234C52.5602 35.2231 53.4751 35.6805 54.6035 35.6805C55.7318 35.6805 56.6772 35.2231 57.3786 34.2929C58.0953 33.3628 58.446 32.2192 58.446 30.8316C58.446 29.444 58.0953 28.148 57.3939 27.2483C56.6925 26.3487 55.7928 25.8912 54.6797 25.8912C53.5666 25.8912 52.5602 26.3334 51.8588 27.2178C51.1574 28.1022 50.8067 29.2763 50.8067 30.7554Z" fill="#BDA360"></path></g><defs><clipPath id="clip0_1278_81"><rect width="67" height="67" fill="white"></rect></clipPath></defs></svg>